<svg width="24" height="24" viewBox="0 0 24 24" fill="none" xmlns="http://www.w3.org/2000/svg">
<path fill-rule="evenodd" clip-rule="evenodd" d="M5.33333 0.333313C5.88562 0.333313 6.33333 0.781028 6.33333 1.33331V3.55682C10.1036 3.22105 13.8964 3.22105 17.6667 3.55682V1.33331C17.6667 0.781028 18.1144 0.333313 18.6667 0.333313C19.219 0.333313 19.6667 0.781028 19.6667 1.33331V3.75523C21.6574 4.0367 23.2301 5.61127 23.4963 7.61976L23.6117 8.49036C24.0971 12.1521 24.0552 15.8646 23.4872 19.5144C23.2059 21.3225 21.737 22.7113 19.916 22.8908L18.3254 23.0477C14.1186 23.4625 9.8813 23.4625 5.67457 23.0477L4.0839 22.8908C2.26291 22.7113 0.794028 21.3225 0.512682 19.5144C-0.0552621 15.8646 -0.0971831 12.1521 0.388198 8.49037L0.503599 7.61976C0.769835 5.61125 2.34257 4.03666 4.33333 3.75521V1.33331C4.33333 0.781028 4.78105 0.333313 5.33333 0.333313ZM5.92689 5.60372C9.9658 5.20542 14.0341 5.20542 18.073 5.60372L19.2803 5.72277C20.436 5.83674 21.3611 6.73137 21.5137 7.88257L21.6291 8.75317C21.6694 9.05732 21.7059 9.36183 21.7385 9.66665H2.26142C2.29406 9.36183 2.33054 9.05732 2.37086 8.75317L2.48626 7.88257C2.63885 6.73137 3.56395 5.83674 4.71962 5.72277L5.92689 5.60372ZM2.10244 11.6666C1.97153 14.1841 2.10051 16.7109 2.4889 19.2069C2.63002 20.1138 3.36679 20.8104 4.28018 20.9005L5.87085 21.0574C9.94704 21.4593 14.0529 21.4593 18.1291 21.0574L19.7197 20.9005C20.6331 20.8104 21.3699 20.1138 21.511 19.2069C21.8994 16.7109 22.0284 14.1841 21.8975 11.6666H2.10244Z" fill="#283A97" fill-opacity="0.5"/>
</svg>
