<svg width="22" height="25" viewBox="0 0 22 25" fill="none" xmlns="http://www.w3.org/2000/svg">
<path d="M13.3946 1.5148C12.0847 0.161979 9.91509 0.161977 8.6052 1.5148L2.20723 8.12244C1.83979 8.50193 1.59288 8.98168 1.4976 9.50124C0.720588 13.7385 0.663232 18.0765 1.32794 22.3328L1.56328 23.8398C1.63761 24.3157 2.04756 24.6666 2.52931 24.6666H6.99992C7.36811 24.6666 7.66659 24.3682 7.66659 24V14.6666H14.3333V24C14.3333 24.3682 14.6317 24.6666 14.9999 24.6666H19.4705C19.9522 24.6666 20.3622 24.3157 20.4365 23.8398L20.6718 22.3328C21.3365 18.0765 21.2792 13.7385 20.5022 9.50124C20.4069 8.98168 20.16 8.50193 19.7925 8.12244L13.3946 1.5148Z" fill="#283A97"/>
</svg>
