<svg width="26" height="22" viewBox="0 0 26 22" fill="none" xmlns="http://www.w3.org/2000/svg">
<path fill-rule="evenodd" clip-rule="evenodd" d="M0.738259 6.13775C0.364735 9.60827 0.381385 13.6109 0.901149 17.0674C1.18875 18.9799 2.74964 20.4461 4.6764 20.6136L6.69004 20.7886C10.8888 21.1536 15.1113 21.1536 19.31 20.7886L21.3236 20.6136C23.2504 20.4461 24.8113 18.9799 25.0989 17.0674C25.6186 13.6109 25.6353 9.6085 25.2618 6.13796C25.2135 5.73561 25.1592 5.3338 25.0989 4.93267C24.8113 3.02015 23.2504 1.55396 21.3236 1.38647L19.31 1.21142C15.1112 0.846436 10.8888 0.846436 6.69004 1.21142L4.6764 1.38647C2.74964 1.55396 1.18875 3.02015 0.901149 4.93267C0.840839 5.33373 0.786542 5.73547 0.738259 6.13775ZM6.86324 3.20391C10.9467 2.84894 15.0533 2.84894 19.1368 3.20391L21.1504 3.37895C22.1562 3.46638 22.971 4.23174 23.1211 5.23008C23.1367 5.33375 23.1519 5.43748 23.1666 5.54125L15.7519 9.66051C14.0405 10.6113 11.9594 10.6113 10.248 9.66051L2.8334 5.5413C2.84815 5.43751 2.86332 5.33377 2.87891 5.23008C3.02904 4.23174 3.84383 3.46638 4.8496 3.37895L6.86324 3.20391ZM23.4113 7.6932C23.67 10.7169 23.5732 13.7633 23.1211 16.77C22.971 17.7683 22.1562 18.5336 21.1504 18.6211L19.1368 18.7961C15.0533 19.1511 10.9467 19.1511 6.86325 18.7961L4.8496 18.6211C3.84383 18.5336 3.02904 17.7683 2.87891 16.7699C2.42679 13.7634 2.33005 10.7169 2.58867 7.69325L9.2767 11.4088C11.5922 12.6952 14.4077 12.6952 16.7232 11.4088L23.4113 7.6932Z" fill="#283A97" fill-opacity="0.5"/>
</svg>
