<svg width="22" height="23" viewBox="0 0 22 23" fill="none" xmlns="http://www.w3.org/2000/svg">
<path fill-rule="evenodd" clip-rule="evenodd" d="M5.33329 5.99998C5.33329 2.87037 7.87035 0.333313 11 0.333313C14.1296 0.333313 16.6666 2.87037 16.6666 5.99998C16.6666 9.12959 14.1296 11.6666 11 11.6666C7.87035 11.6666 5.33329 9.12959 5.33329 5.99998ZM11 2.33331C8.97492 2.33331 7.33329 3.97494 7.33329 5.99998C7.33329 8.02502 8.97492 9.66665 11 9.66665C13.025 9.66665 14.6666 8.02502 14.6666 5.99998C14.6666 3.97494 13.025 2.33331 11 2.33331Z" fill="#283A97" fill-opacity="0.5"/>
<path fill-rule="evenodd" clip-rule="evenodd" d="M5.66663 15.6666C4.00977 15.6666 2.66663 17.0098 2.66663 18.6666V20.251C2.66663 20.2751 2.68411 20.2957 2.70792 20.2996C8.19959 21.1962 13.8003 21.1962 19.292 20.2996C19.3158 20.2957 19.3333 20.2751 19.3333 20.251V18.6666C19.3333 17.0098 17.9901 15.6666 16.3333 15.6666H15.8788C15.8437 15.6666 15.8087 15.6722 15.7753 15.6831L14.6213 16.0599C12.2682 16.8283 9.73171 16.8283 7.3786 16.0599L6.22459 15.6831C6.19118 15.6722 6.15626 15.6666 6.12112 15.6666H5.66663ZM0.666626 18.6666C0.666626 15.9052 2.9052 13.6666 5.66663 13.6666H6.12112C6.36711 13.6666 6.61155 13.7055 6.84539 13.7819L7.99941 14.1587C9.94912 14.7954 12.0508 14.7954 14.0005 14.1587L15.1545 13.7819C15.3884 13.7055 15.6328 13.6666 15.8788 13.6666H16.3333C19.0947 13.6666 21.3333 15.9052 21.3333 18.6666V20.251C21.3333 21.2553 20.6054 22.1116 19.6143 22.2735C13.9092 23.2049 8.09076 23.2049 2.38566 22.2735C1.39447 22.1116 0.666626 21.2553 0.666626 20.251V18.6666Z" fill="#283A97" fill-opacity="0.5"/>
</svg>
